<?xml version="1.0" encoding="UTF-8"?>
<svg width="50mm" height="50mm" version="1.1" viewBox="0 0 50 50" xmlns="http://www.w3.org/2000/svg">
<g>
<path d="m17.954 21.943-16.077-9.0782c15.405 14.595 10.903 15.641 0.069541 27.816l19.402-11.822c21.496-12.368-3.1905-4.1704-3.395-6.9162z" fill="#8dfa52"/>
<path d="m22.308 48.686c36.248-9.0002 34.178-35.418-2.4888-46.501 0.07479 7.3935 16.145 10.67-1.8648 19.758-7.7614 6.5119 18.097 17.35 4.3536 26.743z" fill="#5fbefa"/>
<ellipse cx="39.426" cy="21.659" rx="1.9379" ry="1.4211" fill="#2c2c2c" stroke-dashoffset=".63496" stroke-linejoin="round" stroke-width="9.2604" style="paint-order:fill markers stroke"/>
<path d="m24.724 32.537 0.98185-15.038" fill="none"/>
<path d="m24.409 36.718c16.722 14.575 21.799-33.575-6.4548-14.774l1.5083 6.1768z" fill="#5ff9fa"/>
<path d="m24.409 36.718-5.4242-6.3978-5.4242 3.338 0.83449-13.63 3.5591 1.9155c9.177-0.18457 7.0648 7.8411 6.4548 14.774z" fill="#5ffaa1"/>
</g>
</svg>
