<svg id="visual" viewBox="0 0 2400 800" width="2400" height="800" xmlns="http://www.w3.org/2000/svg" xmlns:xlink="http://www.w3.org/1999/xlink" version="1.1"><rect x="0" y="0" width="2400" height="800" fill="#FFF8FF"></rect><path d="M0 238L30.8 259.7C61.7 281.3 123.3 324.7 184.8 348.3C246.3 372 307.7 376 369.2 383.8C430.7 391.7 492.3 403.3 553.8 381.8C615.3 360.3 676.7 305.7 738.2 292.5C799.7 279.3 861.3 307.7 923 305.5C984.7 303.3 1046.3 270.7 1107.8 283.3C1169.3 296 1230.7 354 1292.2 361.5C1353.7 369 1415.3 326 1477 308.7C1538.7 291.3 1600.3 299.7 1661.8 313.8C1723.3 328 1784.7 348 1846.2 356.5C1907.7 365 1969.3 362 2030.8 356.7C2092.3 351.3 2153.7 343.7 2215.2 323C2276.7 302.3 2338.3 268.7 2369.2 251.8L2400 235L2400 0L2369.2 0C2338.3 0 2276.7 0 2215.2 0C2153.7 0 2092.3 0 2030.8 0C1969.3 0 1907.7 0 1846.2 0C1784.7 0 1723.3 0 1661.8 0C1600.3 0 1538.7 0 1477 0C1415.3 0 1353.7 0 1292.2 0C1230.7 0 1169.3 0 1107.8 0C1046.3 0 984.7 0 923 0C861.3 0 799.7 0 738.2 0C676.7 0 615.3 0 553.8 0C492.3 0 430.7 0 369.2 0C307.7 0 246.3 0 184.8 0C123.3 0 61.7 0 30.8 0L0 0Z" fill="#8dfa52"></path><path d="M0 285L30.8 291C61.7 297 123.3 309 184.8 301.8C246.3 294.7 307.7 268.3 369.2 255.8C430.7 243.3 492.3 244.7 553.8 259.8C615.3 275 676.7 304 738.2 295C799.7 286 861.3 239 923 221.8C984.7 204.7 1046.3 217.3 1107.8 232.8C1169.3 248.3 1230.7 266.7 1292.2 280C1353.7 293.3 1415.3 301.7 1477 291.3C1538.7 281 1600.3 252 1661.8 251.2C1723.3 250.3 1784.7 277.7 1846.2 271.2C1907.7 264.7 1969.3 224.3 2030.8 214.8C2092.3 205.3 2153.7 226.7 2215.2 248.8C2276.7 271 2338.3 294 2369.2 305.5L2400 317L2400 0L2369.2 0C2338.3 0 2276.7 0 2215.2 0C2153.7 0 2092.3 0 2030.8 0C1969.3 0 1907.7 0 1846.2 0C1784.7 0 1723.3 0 1661.8 0C1600.3 0 1538.7 0 1477 0C1415.3 0 1353.7 0 1292.2 0C1230.7 0 1169.3 0 1107.8 0C1046.3 0 984.7 0 923 0C861.3 0 799.7 0 738.2 0C676.7 0 615.3 0 553.8 0C492.3 0 430.7 0 369.2 0C307.7 0 246.3 0 184.8 0C123.3 0 61.7 0 30.8 0L0 0Z" fill="#02f6ad"></path><path d="M0 210L30.8 197.5C61.7 185 123.3 160 184.8 159.7C246.3 159.3 307.7 183.7 369.2 188.8C430.7 194 492.3 180 553.8 188C615.3 196 676.7 226 738.2 224.7C799.7 223.3 861.3 190.7 923 176.3C984.7 162 1046.3 166 1107.8 184.7C1169.3 203.3 1230.7 236.7 1292.2 246C1353.7 255.3 1415.3 240.7 1477 226.2C1538.7 211.7 1600.3 197.3 1661.8 188.8C1723.3 180.3 1784.7 177.7 1846.2 191C1907.7 204.3 1969.3 233.7 2030.8 236.8C2092.3 240 2153.7 217 2215.2 198.7C2276.7 180.3 2338.3 166.7 2369.2 159.8L2400 153L2400 0L2369.2 0C2338.3 0 2276.7 0 2215.2 0C2153.7 0 2092.3 0 2030.8 0C1969.3 0 1907.7 0 1846.2 0C1784.7 0 1723.3 0 1661.8 0C1600.3 0 1538.7 0 1477 0C1415.3 0 1353.7 0 1292.2 0C1230.7 0 1169.3 0 1107.8 0C1046.3 0 984.7 0 923 0C861.3 0 799.7 0 738.2 0C676.7 0 615.3 0 553.8 0C492.3 0 430.7 0 369.2 0C307.7 0 246.3 0 184.8 0C123.3 0 61.7 0 30.8 0L0 0Z" fill="#00e9e3"></path><path d="M0 124L30.8 123.5C61.7 123 123.3 122 184.8 118C246.3 114 307.7 107 369.2 115.2C430.7 123.3 492.3 146.7 553.8 151.5C615.3 156.3 676.7 142.7 738.2 137.8C799.7 133 861.3 137 923 140.7C984.7 144.3 1046.3 147.7 1107.8 139.2C1169.3 130.7 1230.7 110.3 1292.2 98.8C1353.7 87.3 1415.3 84.7 1477 88.3C1538.7 92 1600.3 102 1661.8 108.7C1723.3 115.3 1784.7 118.7 1846.2 123.7C1907.7 128.7 1969.3 135.3 2030.8 139.8C2092.3 144.3 2153.7 146.7 2215.2 150.7C2276.7 154.7 2338.3 160.3 2369.2 163.2L2400 166L2400 0L2369.2 0C2338.3 0 2276.7 0 2215.2 0C2153.7 0 2092.3 0 2030.8 0C1969.3 0 1907.7 0 1846.2 0C1784.7 0 1723.3 0 1661.8 0C1600.3 0 1538.7 0 1477 0C1415.3 0 1353.7 0 1292.2 0C1230.7 0 1169.3 0 1107.8 0C1046.3 0 984.7 0 923 0C861.3 0 799.7 0 738.2 0C676.7 0 615.3 0 553.8 0C492.3 0 430.7 0 369.2 0C307.7 0 246.3 0 184.8 0C123.3 0 61.7 0 30.8 0L0 0Z" fill="#00d6fa"></path><path d="M0 46L30.8 49.8C61.7 53.7 123.3 61.3 184.8 70.7C246.3 80 307.7 91 369.2 94.3C430.7 97.7 492.3 93.3 553.8 96.7C615.3 100 676.7 111 738.2 116.5C799.7 122 861.3 122 923 107C984.7 92 1046.3 62 1107.8 57.8C1169.3 53.7 1230.7 75.3 1292.2 82.7C1353.7 90 1415.3 83 1477 73.8C1538.7 64.7 1600.3 53.3 1661.8 52.2C1723.3 51 1784.7 60 1846.2 60.3C1907.7 60.7 1969.3 52.3 2030.8 50.3C2092.3 48.3 2153.7 52.7 2215.2 57C2276.7 61.3 2338.3 65.7 2369.2 67.8L2400 70L2400 0L2369.2 0C2338.3 0 2276.7 0 2215.2 0C2153.7 0 2092.3 0 2030.8 0C1969.3 0 1907.7 0 1846.2 0C1784.7 0 1723.3 0 1661.8 0C1600.3 0 1538.7 0 1477 0C1415.3 0 1353.7 0 1292.2 0C1230.7 0 1169.3 0 1107.8 0C1046.3 0 984.7 0 923 0C861.3 0 799.7 0 738.2 0C676.7 0 615.3 0 553.8 0C492.3 0 430.7 0 369.2 0C307.7 0 246.3 0 184.8 0C123.3 0 61.7 0 30.8 0L0 0Z" fill="#5fbefa"></path></svg>