<svg id="visual" viewBox="0 0 2400 800" width="2400" height="800" xmlns="http://www.w3.org/2000/svg" xmlns:xlink="http://www.w3.org/1999/xlink" version="1.1"><rect x="0" y="0" width="2400" height="800" fill="#FFF8FF"></rect><path d="M0 560L30.8 538.3C61.7 516.7 123.3 473.3 184.8 449.7C246.3 426 307.7 422 369.2 414.2C430.7 406.3 492.3 394.7 553.8 416.2C615.3 437.7 676.7 492.3 738.2 505.5C799.7 518.7 861.3 490.3 923 492.5C984.7 494.7 1046.3 527.3 1107.8 514.7C1169.3 502 1230.7 444 1292.2 436.5C1353.7 429 1415.3 472 1477 489.3C1538.7 506.7 1600.3 498.3 1661.8 484.2C1723.3 470 1784.7 450 1846.2 441.5C1907.7 433 1969.3 436 2030.8 441.3C2092.3 446.7 2153.7 454.3 2215.2 475C2276.7 495.7 2338.3 529.3 2369.2 546.2L2400 563L2400 801L2369.2 801C2338.3 801 2276.7 801 2215.2 801C2153.7 801 2092.3 801 2030.8 801C1969.3 801 1907.7 801 1846.2 801C1784.7 801 1723.3 801 1661.8 801C1600.3 801 1538.7 801 1477 801C1415.3 801 1353.7 801 1292.2 801C1230.7 801 1169.3 801 1107.8 801C1046.3 801 984.7 801 923 801C861.3 801 799.7 801 738.2 801C676.7 801 615.3 801 553.8 801C492.3 801 430.7 801 369.2 801C307.7 801 246.3 801 184.8 801C123.3 801 61.7 801 30.8 801L0 801Z" fill="#8dfa52"></path><path d="M0 513L30.8 507C61.7 501 123.3 489 184.8 496.2C246.3 503.3 307.7 529.7 369.2 542.2C430.7 554.7 492.3 553.3 553.8 538.2C615.3 523 676.7 494 738.2 503C799.7 512 861.3 559 923 576.2C984.7 593.3 1046.3 580.7 1107.8 565.2C1169.3 549.7 1230.7 531.3 1292.2 518C1353.7 504.7 1415.3 496.3 1477 506.7C1538.7 517 1600.3 546 1661.8 546.8C1723.3 547.7 1784.7 520.3 1846.2 526.8C1907.7 533.3 1969.3 573.7 2030.8 583.2C2092.3 592.7 2153.7 571.3 2215.2 549.2C2276.7 527 2338.3 504 2369.2 492.5L2400 481L2400 801L2369.2 801C2338.3 801 2276.7 801 2215.2 801C2153.7 801 2092.3 801 2030.8 801C1969.3 801 1907.7 801 1846.2 801C1784.7 801 1723.3 801 1661.8 801C1600.3 801 1538.7 801 1477 801C1415.3 801 1353.7 801 1292.2 801C1230.7 801 1169.3 801 1107.8 801C1046.3 801 984.7 801 923 801C861.3 801 799.7 801 738.2 801C676.7 801 615.3 801 553.8 801C492.3 801 430.7 801 369.2 801C307.7 801 246.3 801 184.8 801C123.3 801 61.7 801 30.8 801L0 801Z" fill="#02f6ad"></path><path d="M0 588L30.8 600.5C61.7 613 123.3 638 184.8 638.3C246.3 638.7 307.7 614.3 369.2 609.2C430.7 604 492.3 618 553.8 610C615.3 602 676.7 572 738.2 573.3C799.7 574.7 861.3 607.3 923 621.7C984.7 636 1046.3 632 1107.8 613.3C1169.3 594.7 1230.7 561.3 1292.2 552C1353.7 542.7 1415.3 557.3 1477 571.8C1538.7 586.3 1600.3 600.7 1661.8 609.2C1723.3 617.7 1784.7 620.3 1846.2 607C1907.7 593.7 1969.3 564.3 2030.8 561.2C2092.3 558 2153.7 581 2215.2 599.3C2276.7 617.7 2338.3 631.3 2369.2 638.2L2400 645L2400 801L2369.2 801C2338.3 801 2276.7 801 2215.2 801C2153.7 801 2092.3 801 2030.8 801C1969.3 801 1907.7 801 1846.2 801C1784.7 801 1723.3 801 1661.8 801C1600.3 801 1538.7 801 1477 801C1415.3 801 1353.7 801 1292.2 801C1230.7 801 1169.3 801 1107.8 801C1046.3 801 984.7 801 923 801C861.3 801 799.7 801 738.2 801C676.7 801 615.3 801 553.8 801C492.3 801 430.7 801 369.2 801C307.7 801 246.3 801 184.8 801C123.3 801 61.7 801 30.8 801L0 801Z" fill="#00e9e3"></path><path d="M0 674L30.8 674.5C61.7 675 123.3 676 184.8 680C246.3 684 307.7 691 369.2 682.8C430.7 674.7 492.3 651.3 553.8 646.5C615.3 641.7 676.7 655.3 738.2 660.2C799.7 665 861.3 661 923 657.3C984.7 653.7 1046.3 650.3 1107.8 658.8C1169.3 667.3 1230.7 687.7 1292.2 699.2C1353.7 710.7 1415.3 713.3 1477 709.7C1538.7 706 1600.3 696 1661.8 689.3C1723.3 682.7 1784.7 679.3 1846.2 674.3C1907.7 669.3 1969.3 662.7 2030.8 658.2C2092.3 653.7 2153.7 651.3 2215.2 647.3C2276.7 643.3 2338.3 637.7 2369.2 634.8L2400 632L2400 801L2369.2 801C2338.3 801 2276.7 801 2215.2 801C2153.7 801 2092.3 801 2030.8 801C1969.3 801 1907.7 801 1846.2 801C1784.7 801 1723.3 801 1661.8 801C1600.3 801 1538.7 801 1477 801C1415.3 801 1353.7 801 1292.2 801C1230.7 801 1169.3 801 1107.8 801C1046.3 801 984.7 801 923 801C861.3 801 799.7 801 738.2 801C676.7 801 615.3 801 553.8 801C492.3 801 430.7 801 369.2 801C307.7 801 246.3 801 184.8 801C123.3 801 61.7 801 30.8 801L0 801Z" fill="#00d6fa"></path><path d="M0 752L30.8 748.2C61.7 744.3 123.3 736.7 184.8 727.3C246.3 718 307.7 707 369.2 703.7C430.7 700.3 492.3 704.7 553.8 701.3C615.3 698 676.7 687 738.2 681.5C799.7 676 861.3 676 923 691C984.7 706 1046.3 736 1107.8 740.2C1169.3 744.3 1230.7 722.7 1292.2 715.3C1353.7 708 1415.3 715 1477 724.2C1538.7 733.3 1600.3 744.7 1661.8 745.8C1723.3 747 1784.7 738 1846.2 737.7C1907.7 737.3 1969.3 745.7 2030.8 747.7C2092.3 749.7 2153.7 745.3 2215.2 741C2276.7 736.7 2338.3 732.3 2369.2 730.2L2400 728L2400 801L2369.2 801C2338.3 801 2276.7 801 2215.2 801C2153.7 801 2092.3 801 2030.8 801C1969.3 801 1907.7 801 1846.2 801C1784.7 801 1723.3 801 1661.8 801C1600.3 801 1538.7 801 1477 801C1415.3 801 1353.7 801 1292.2 801C1230.7 801 1169.3 801 1107.8 801C1046.3 801 984.7 801 923 801C861.3 801 799.7 801 738.2 801C676.7 801 615.3 801 553.8 801C492.3 801 430.7 801 369.2 801C307.7 801 246.3 801 184.8 801C123.3 801 61.7 801 30.8 801L0 801Z" fill="#5fbefa"></path></svg>