<svg id="visual" viewBox="0 0 900 600" width="900" height="600" xmlns="http://www.w3.org/2000/svg" xmlns:xlink="http://www.w3.org/1999/xlink" version="1.1"><path d="M0 228L21.5 232.8C43 237.7 86 247.3 128.8 235.5C171.7 223.7 214.3 190.3 257.2 179.2C300 168 343 179 385.8 187C428.7 195 471.3 200 514.2 209.7C557 219.3 600 233.7 642.8 228.2C685.7 222.7 728.3 197.3 771.2 189.7C814 182 857 192 878.5 197L900 202L900 0L878.5 0C857 0 814 0 771.2 0C728.3 0 685.7 0 642.8 0C600 0 557 0 514.2 0C471.3 0 428.7 0 385.8 0C343 0 300 0 257.2 0C214.3 0 171.7 0 128.8 0C86 0 43 0 21.5 0L0 0Z" fill="#9dd6f9"></path><path d="M0 205L21.5 200.3C43 195.7 86 186.3 128.8 178.2C171.7 170 214.3 163 257.2 161.3C300 159.7 343 163.3 385.8 167.7C428.7 172 471.3 177 514.2 179.5C557 182 600 182 642.8 178.8C685.7 175.7 728.3 169.3 771.2 165.7C814 162 857 161 878.5 160.5L900 160L900 0L878.5 0C857 0 814 0 771.2 0C728.3 0 685.7 0 642.8 0C600 0 557 0 514.2 0C471.3 0 428.7 0 385.8 0C343 0 300 0 257.2 0C214.3 0 171.7 0 128.8 0C86 0 43 0 21.5 0L0 0Z" fill="#8acef9"></path><path d="M0 136L21.5 139.7C43 143.3 86 150.7 128.8 142C171.7 133.3 214.3 108.7 257.2 94.8C300 81 343 78 385.8 89.5C428.7 101 471.3 127 514.2 127.5C557 128 600 103 642.8 94.5C685.7 86 728.3 94 771.2 105.5C814 117 857 132 878.5 139.5L900 147L900 0L878.5 0C857 0 814 0 771.2 0C728.3 0 685.7 0 642.8 0C600 0 557 0 514.2 0C471.3 0 428.7 0 385.8 0C343 0 300 0 257.2 0C214.3 0 171.7 0 128.8 0C86 0 43 0 21.5 0L0 0Z" fill="#76c6f9"></path><path d="M0 78L21.5 79.3C43 80.7 86 83.3 128.8 86.3C171.7 89.3 214.3 92.7 257.2 87.5C300 82.3 343 68.7 385.8 62.7C428.7 56.7 471.3 58.3 514.2 59C557 59.7 600 59.3 642.8 54.7C685.7 50 728.3 41 771.2 34.3C814 27.7 857 23.3 878.5 21.2L900 19L900 0L878.5 0C857 0 814 0 771.2 0C728.3 0 685.7 0 642.8 0C600 0 557 0 514.2 0C471.3 0 428.7 0 385.8 0C343 0 300 0 257.2 0C214.3 0 171.7 0 128.8 0C86 0 43 0 21.5 0L0 0Z" fill="#5fbefa"></path></svg>